<svg width="32" height="32" viewBox="0 0 32 32" fill="none" xmlns="http://www.w3.org/2000/svg">
<path d="M22.7491 13.7098V13.0052C22.7491 9.13647 19.7274 6.00024 16 6.00024C12.2726 6.00024 9.25087 9.13647 9.25087 13.0052V13.7098C9.25087 14.5554 9.00972 15.3821 8.5578 16.0856L7.45036 17.8098C6.43882 19.3846 7.21105 21.5252 8.97036 22.0232C13.5727 23.3259 18.4273 23.3259 23.0296 22.0232C24.789 21.5252 25.5612 19.3846 24.5496 17.8098L23.4422 16.0856C22.9903 15.3821 22.7491 14.5554 22.7491 13.7098Z" stroke="#19173B" stroke-width="1.5"/>
<path d="M11.5 22.9998C12.155 24.7475 13.9225 25.9998 16 25.9998C18.0775 25.9998 19.845 24.7475 20.5 22.9998" stroke="#19173B" stroke-width="1.5" stroke-linecap="round"/>
<g clip-path="url(#clip0_1_2829)">
<rect x="16.0002" y="2.00025" width="6.0025" height="6.0015" rx="3.00075" fill="#D33030"/>
</g>
<defs>
<clipPath id="clip0_1_2829">
<rect x="16.0002" y="2.00025" width="6.0025" height="6.0015" rx="3.00075" fill="white"/>
</clipPath>
</defs>
</svg>
