<svg width="17" height="14" viewBox="0 0 17 14" fill="none" xmlns="http://www.w3.org/2000/svg">
<path d="M15.1667 5.83333H3.5L7.33833 1.995C7.44768 1.88654 7.53448 1.75751 7.59371 1.61534C7.65294 1.47317 7.68343 1.32068 7.68343 1.16667C7.68343 1.01265 7.65294 0.860164 7.59371 0.717995C7.53448 0.575826 7.44768 0.446792 7.33833 0.338335C7.11974 0.121042 6.82405 -0.000923157 6.51583 -0.000923157C6.20762 -0.000923157 5.91192 0.121042 5.69333 0.338335L0.688334 5.355C0.250148 5.79058 0.00260492 6.38216 0 7C0.00567769 7.61379 0.252985 8.20062 0.688334 8.63333L5.69333 13.65C5.80211 13.758 5.9311 13.8435 6.07293 13.9017C6.21476 13.9599 6.36666 13.9895 6.51996 13.989C6.67325 13.9884 6.82494 13.9577 6.96636 13.8985C7.10778 13.8394 7.23616 13.7529 7.34417 13.6442C7.45218 13.5354 7.53771 13.4064 7.59587 13.2646C7.65403 13.1227 7.68369 12.9708 7.68315 12.8175C7.68261 12.6642 7.65188 12.5126 7.59271 12.3711C7.53355 12.2297 7.44711 12.1013 7.33833 11.9933L3.5 8.16667H15.1667C15.4761 8.16667 15.7728 8.04375 15.9916 7.82496C16.2104 7.60617 16.3333 7.30942 16.3333 7C16.3333 6.69058 16.2104 6.39384 15.9916 6.17504C15.7728 5.95625 15.4761 5.83333 15.1667 5.83333Z" fill="black"/>
</svg>
