<svg width="18" height="18" viewBox="0 0 18 18" fill="none" xmlns="http://www.w3.org/2000/svg">
<path d="M17.4533 7.06426C16.7762 5.95555 15.9222 4.9652 14.925 4.13251L17.025 2.03251C17.1617 1.89106 17.2373 1.70161 17.2355 1.50496C17.2338 1.30831 17.155 1.1202 17.0159 0.981145C16.8768 0.842088 16.6887 0.763212 16.4921 0.761503C16.2954 0.759794 16.106 0.83539 15.9645 0.972009L13.6808 3.25876C12.2651 2.41787 10.6466 1.97961 9.00004 1.99126C4.35679 1.99126 1.71079 5.16976 0.546788 7.06426C0.187184 7.64589 -0.0032959 8.31619 -0.0032959 9.00001C-0.0032959 9.68383 0.187184 10.3541 0.546788 10.9358C1.22386 12.0445 2.07791 13.0348 3.07504 13.8675L0.975038 15.9675C0.903406 16.0367 0.846269 16.1195 0.806962 16.211C0.767656 16.3025 0.746966 16.4009 0.746101 16.5005C0.745235 16.6 0.764211 16.6988 0.801922 16.791C0.839633 16.8831 0.895323 16.9669 0.965742 17.0373C1.03616 17.1077 1.1199 17.1634 1.21207 17.2011C1.30425 17.2388 1.403 17.2578 1.50259 17.2569C1.60217 17.2561 1.70059 17.2354 1.79209 17.1961C1.88359 17.1568 1.96635 17.0996 2.03554 17.028L4.32454 14.739C5.73849 15.5798 7.35504 16.0188 9.00004 16.0088C13.6433 16.0088 16.2893 12.8303 17.4533 10.9358C17.8129 10.3541 18.0034 9.68383 18.0034 9.00001C18.0034 8.31619 17.8129 7.64589 17.4533 7.06426ZM1.82479 10.1505C1.61114 9.80479 1.49798 9.40641 1.49798 9.00001C1.49798 8.5936 1.61114 8.19522 1.82479 7.84951C2.82529 6.22501 5.08654 3.49126 9.00004 3.49126C10.2452 3.48428 11.473 3.78439 12.5745 4.36501L11.0648 5.87476C10.3447 5.39671 9.48147 5.18251 8.62146 5.26849C7.76146 5.35448 6.95769 5.73536 6.34654 6.34651C5.73539 6.95766 5.35451 7.76143 5.26852 8.62143C5.18254 9.48144 5.39674 10.3447 5.87479 11.0648L4.14229 12.7973C3.22362 12.0545 2.43967 11.1592 1.82479 10.1505ZM11.25 9.00001C11.25 9.59674 11.013 10.169 10.591 10.591C10.1691 11.013 9.59678 11.25 9.00004 11.25C8.66592 11.2487 8.33644 11.1718 8.03629 11.025L11.025 8.03626C11.1718 8.33641 11.2487 8.66589 11.25 9.00001ZM6.75004 9.00001C6.75004 8.40327 6.98709 7.83097 7.40905 7.40902C7.831 6.98706 8.4033 6.75001 9.00004 6.75001C9.33415 6.7513 9.66364 6.82822 9.96379 6.97501L6.97504 9.96376C6.82825 9.66361 6.75133 9.33412 6.75004 9.00001ZM16.1753 10.1505C15.1748 11.775 12.9135 14.5088 9.00004 14.5088C7.75483 14.5157 6.52711 14.2156 5.42554 13.635L6.93529 12.1253C7.65534 12.6033 8.51861 12.8175 9.37861 12.7315C10.2386 12.6455 11.0424 12.2647 11.6535 11.6535C12.2647 11.0424 12.6456 10.2386 12.7316 9.37858C12.8175 8.51858 12.6033 7.65531 12.1253 6.93526L13.8578 5.20276C14.7765 5.94547 15.5604 6.84079 16.1753 7.84951C16.3889 8.19522 16.5021 8.5936 16.5021 9.00001C16.5021 9.40641 16.3889 9.80479 16.1753 10.1505Z" fill="black" fill-opacity="0.55"/>
</svg>
